# xmcd
#
# Track frame offsets: 
#        150
#        13145
#        29956
#        43965
#        57702
#        71863
#        89567
#        112946
#        126024
#        138278
#        154445
#        176121
#        196331
#        212918
#
# Disc length: 3074 seconds
#
# Revision: 1
# Processed by: cddbd v1.5.2PL0 Copyright (c) Steve Scherf et al.
# Submitted via: ExactAudioCopyFreeDBPlugin 1.0
#
DISCID=e20c000e
DTITLE=Kramer, Chris - 2012 - Kramer Kommt!
DYEAR=2012
DGENRE=Blues
TTITLE0=Ich bin anders
TTITLE1=Volle Kraft voraus
TTITLE2=Geld, Geld, Geld
TTITLE3=Du bist Licht
TTITLE4=Gute Zeiten
TTITLE5=Drachenblut
TTITLE6=Abschied nehmen
TTITLE7=Bo
TTITLE8=Mädchen aus Berlin
TTITLE9=Betriebsurlaub
TTITLE10=Ich trink mir heut`nen kleinen an
TTITLE11=Ordentlich bin ich nur gelegentlich
TTITLE12=Nie wieder
TTITLE13=Ein Teil von Dir
EXTD=YEAR: 2012
EXTT0=
EXTT1=
EXTT2=
EXTT3=
EXTT4=
EXTT5=
EXTT6=
EXTT7=
EXTT8=
EXTT9=
EXTT10=
EXTT11=
EXTT12=
EXTT13=
PLAYORDER=
